<mxfile host="app.diagrams.net" modified="2023-10-08T05:17:48.740Z" agent="Mozilla/5.0 (Windows NT 10.0; Win64; x64) AppleWebKit/537.36 (KHTML, like Gecko) Chrome/117.0.0.0 Safari/537.36" version="22.0.4" etag="5Nvlqeqnq0r4FrazD80I" type="github">
  <diagram name="Page-1" id="iSRTHbF-8g_CsZO1p46w">
    <mxGraphModel>
      <root>
        <mxCell id="0" />
        <mxCell id="1" parent="0" />
      </root>
    </mxGraphModel>
  </diagram>
</mxfile>
